<?xml version="1.0" standalone="no"?>
<!DOCTYPE svg PUBLIC "-//W3C//DTD SVG 1.1//EN" "http://www.w3.org/Graphics/SVG/1.1/DTD/svg11.dtd" >
<svg xmlns="http://www.w3.org/2000/svg">
<metadata></metadata>
<defs>
<font id="dekarregular" horiz-adv-x="966" >
<font-face units-per-em="2048" ascent="1536" descent="-512" />
<missing-glyph horiz-adv-x="487" />
<glyph horiz-adv-x="2048" />
<glyph horiz-adv-x="2048" />
<glyph unicode="&#xd;" horiz-adv-x="2048" />
<glyph unicode=" "  horiz-adv-x="487" />
<glyph unicode="&#x09;" horiz-adv-x="487" />
<glyph unicode="&#xa0;" horiz-adv-x="487" />
<glyph unicode="!" horiz-adv-x="376" d="M129 0v147h117v-147h-117zM135 311v1127h109v-1127h-109z" />
<glyph unicode="&#x22;" horiz-adv-x="458" d="M78 1098v340h98v-340h-98zM266 1098v340h99v-340h-99z" />
<glyph unicode="&#x26;" horiz-adv-x="1228" d="M106 262v242q0 92 68 149t166 72q-96 17 -151.5 80t-55.5 145v224q0 89 64.5 154t160.5 94.5t209 29.5q112 0 207 -29.5t158 -94.5t63 -154v-111h-98v111q0 57 -49 98.5t-122.5 60.5t-158.5 19q-135 0 -232 -47t-97 -131v-224q0 -47 27.5 -82t75 -55.5t104.5 -30.5 t122 -10h609v-90h-148v-420q0 -67 -41 -121.5t-108.5 -87.5t-147.5 -51t-164 -18t-164 18t-147.5 51t-108.5 87.5t-41 121.5zM209 262q0 -42 32.5 -76.5t84.5 -55.5t114.5 -32.5t126.5 -11.5q86 0 166 19t136.5 60.5t56.5 96.5v420h-359q-52 0 -105 -7t-114.5 -24t-100 -55 t-38.5 -92v-242z" />
<glyph unicode="'" horiz-adv-x="319" d="M119 1098v340h98v-340h-98z" />
<glyph unicode="(" horiz-adv-x="456" d="M162.5 294q-34.5 351 0 702t126.5 538h102q-92 -187 -126.5 -538t0 -702t126.5 -538h-102q-92 187 -126.5 538z" />
<glyph unicode=")" horiz-adv-x="489" d="M82 -244q92 187 126.5 538t0 702t-126.5 538h102q92 -187 126.5 -538t0 -702t-126.5 -538h-102z" />
<glyph unicode="+" horiz-adv-x="849" d="M106 539v98h273v272h98v-272h279v-98h-279v-279h-98v279h-273z" />
<glyph unicode="," horiz-adv-x="458" d="M164 4v137h123v-137q0 -120 -111 -108v45q17 -2 28 19t5 44h-45z" />
<glyph unicode="-" horiz-adv-x="649" d="M88 510v102h440v-102h-440z" />
<glyph unicode="." horiz-adv-x="419" d="M137 -2v139h123v-139h-123z" />
<glyph unicode="0" horiz-adv-x="1069" d="M100 264v914q0 66 37 120t98 87t138.5 51t159 18t159 -18t138.5 -51t98 -87t37 -120v-914q0 -67 -37 -122t-98 -88.5t-138.5 -51.5t-159 -18t-159 18t-138.5 51.5t-98 88.5t-37 122zM205 272q0 -27 6 -51q22 -65 119 -101t214 -33.5t204 38.5l-517 1132q-26 -37 -26 -79 v-906zM315 1319l519 -1137q26 33 26 90l2 906q0 64 -59 108.5t-143.5 61t-179.5 9.5t-165 -38z" />
<glyph unicode="1" horiz-adv-x="497" d="M55 1327v107h322v-1434h-105v1327h-217z" />
<glyph unicode="2" horiz-adv-x="1005" d="M82 168v96q0 81 31 150.5t77 116t115.5 91.5t130 73t138.5 65.5t124 64.5q141 83 138 252q0 119 -97 199q-55 45 -125.5 64t-138 15.5t-137.5 -24.5q-61 -16 -106 -65t-46 -113h-102q0 92 57 160t150 100h2q82 26 173 32t183.5 -16t155.5 -73q130 -114 133 -277 q0 -117 -44.5 -198.5t-143.5 -137.5q-47 -27 -120 -60.5t-128 -58t-117.5 -62t-103 -76t-68.5 -96.5t-29 -128v-94q0 -45 17 -57.5t63 -12.5h666v-98h-668q-97 0 -138.5 34.5t-41.5 133.5z" />
<glyph unicode="3" d="M80 0v104h416v-2l8 2q42 0 87 10t86.5 29.5t68 54t26.5 78.5v218q0 57 -46 99.5t-105 60.5t-117 18h-8h-416v90h416h8q42 0 87 11t86.5 32.5t68 57t26.5 79.5v217q0 44 -26.5 78.5t-68 54t-86.5 29.5t-87 10h-8h-416v105l426 -2q65 0 128.5 -17t119 -49t89.5 -86.5 t34 -122.5v-217q0 -145 -150 -225q68 -35 109 -91.5t41 -131.5v-218q0 -68 -34 -122.5t-89.5 -86.5t-119 -49t-128.5 -18h-426z" />
<glyph unicode="4" horiz-adv-x="1030" d="M62 586q7 59 42 112l357 736h121l-389 -787q-22 -34 -25 -75t19.5 -72t68.5 -31h571v965h103v-1434h-103v367h-575q-66 1 -112.5 32.5t-65.5 79.5t-12 107z" />
<glyph unicode="5" horiz-adv-x="1085" d="M117 969v465h831v-105h-727v-354q0 -51 19 -71.5t69 -20.5h234q85 0 168 -15q121 -23 198.5 -91t77.5 -175v-338q0 -98 -66 -163t-173 -93q-81 -22 -199 -21.5t-201 23.5q-103 30 -165.5 94.5t-61.5 159.5h100q0 -57 42 -96t112 -59q72 -22 173.5 -22.5t174.5 19.5 q72 18 117.5 58.5t46.5 99.5v338q-1 64 -56.5 108t-138.5 58q-64 12 -143 12h-250q-87 0 -134.5 49.5t-47.5 139.5z" />
<glyph unicode="6" horiz-adv-x="1062" d="M102 264v901q0 112 79.5 180t197.5 91q77 16 183 13t183 -26q99 -29 162 -94t62 -162l-101 2q0 59 -44 98.5t-109 59.5q-66 19 -158 20.5t-160 -12.5q-79 -14 -135.5 -56.5t-56.5 -113.5v-395h356q67 0 131 -12q115 -21 196 -90t81 -179v-219q0 -99 -62.5 -164.5 t-165.5 -95.5q-83 -23 -200.5 -23.5t-198.5 21.5q-106 28 -172.5 93.5t-67.5 162.5zM203 264q1 -57 47 -97.5t119 -60.5q72 -19 173 -18t173 21q67 20 110 59t43 100l-2 221q0 71 -57.5 113.5t-134.5 56.5q-56 9 -109 9h-360v-185v-219h-2z" />
<glyph unicode="7" horiz-adv-x="978" d="M51 1331v103h690q67 -1 114 -33t65.5 -80t12 -107t-41.5 -112l-660 -1102h-120l692 1153q22 34 24.5 75t-20.5 72t-68 31h-688z" />
<glyph unicode="8" horiz-adv-x="1116" d="M94 262v242q0 87 63.5 146t153.5 75q-86 27 -137 87t-51 140v226q0 89 64.5 154t160.5 94.5t209 29.5t209 -29.5t160.5 -94.5t64.5 -154v-226q0 -80 -51.5 -140t-138.5 -87q91 -16 154 -74.5t63 -146.5v-242q0 -67 -41 -121.5t-108.5 -87.5t-147.5 -51t-164 -18 t-164.5 18t-148 51t-109 87.5t-41.5 121.5zM199 262q0 -42 32.5 -76.5t84.5 -55.5t114.5 -32.5t126.5 -11.5q63 0 125.5 11.5t115 32.5t85 55.5t32.5 76.5v242q0 56 -56 99t-136.5 64t-165.5 21q-86 0 -166.5 -21t-136 -64t-55.5 -99v-242zM225 952q0 -82 99.5 -132 t232.5 -50q131 0 230.5 50t99.5 132v226q0 56 -49 97t-122.5 60t-158.5 19q-86 0 -160 -19t-123 -60t-49 -97v-226z" />
<glyph unicode="9" horiz-adv-x="1062" d="M92 266h103q0 -61 43.5 -100.5t107.5 -56.5q68 -20 160 -21.5t160 12.5q78 14 135 56.5t57 113.5v371h-356q-77 0 -131 10q-74 15 -134 46t-102.5 90t-42.5 135l2 245q-1 100 60.5 165t164.5 95q83 23 201.5 24t200.5 -21q106 -28 172.5 -93t67.5 -163v-906 q0 -110 -80 -177.5t-197 -90.5q-79 -16 -184.5 -13t-184.5 25q-98 28 -160.5 93t-62.5 161zM195 922q1 -71 58.5 -113.5t135.5 -56.5q55 -9 109 -9h360v213v218q0 59 -45 99t-119 58q-71 20 -173 20t-173 -22q-66 -17 -109.5 -57t-43.5 -103v-247z" />
<glyph unicode=":" horiz-adv-x="440" d="M137 -2v139h123v-139h-123zM137 745v140h123v-140h-123z" />
<glyph unicode=";" horiz-adv-x="403" d="M135 2v137h123v-137q0 -120 -111 -108v45q17 -2 28 19t5 44h-45zM137 745v140h123v-140h-123z" />
<glyph unicode="=" horiz-adv-x="1005" d="M123 510v102h715v-102h-715zM123 805v102h715v-102h-715z" />
<glyph unicode="?" horiz-adv-x="989" d="M63 1155q0 92 58 161t151 99q81 27 173.5 32.5t184.5 -16.5t154 -73q131 -108 134 -277q3 -230 -189 -340q-28 -16 -74 -42q-33 -18 -46.5 -25t-33.5 -22.5t-25.5 -20t-15.5 -24.5t-11.5 -29t-5 -39.5t-3.5 -50.5t-1 -68q-1 -33 -1 -51v-133h-102v135q0 59 1 98t6 76.5 t9 58.5t18 45t24.5 36t36.5 31t46.5 31t60.5 36q42 24 66 38q140 84 137 260q0 120 -96 199q-54 45 -125 64t-138.5 15t-138.5 -24q-61 -18 -104.5 -67t-46.5 -113h-103zM403 -2v121h113v-121h-113z" />
<glyph unicode="@" horiz-adv-x="1024" />
<glyph unicode="A" horiz-adv-x="1093" d="M102 0v1171q0 136 127 211q73 44 191 60q59 8 117 8q59 0 117 -8q116 -16 188 -60q127 -75 127 -211h2v-1171h-103v561h-663v-561h-103zM205 664h663v507q0 76 -80 125q-87 54 -250 54h-3q-165 0 -252 -54q-78 -48 -78 -125v-507z" />
<glyph unicode="B" horiz-adv-x="1093" d="M100 0l2 1434h488q135 0 237 -60q120 -70 123 -200v-238q-3 -131 -123 -201l-6 -4q25 -11 39 -20q135 -81 135 -224v-194v-2q0 -142 -135 -223q-112 -68 -270 -68h-490zM203 102h387q129 0 217 54q88 51 88 135v2v194q0 85 -88 136q-82 53 -215 53h-2h-387v-574zM203 778 h385q117 0 188 45q72 43 72 117v234q0 70 -72 112q-74 45 -186 45h-387v-553z" />
<glyph unicode="C" horiz-adv-x="1056" d="M102 268v899q1 107 78.5 175.5t198.5 91.5q66 13 151 13q22 0 44 -1q112 -4 188 -29q96 -33 152.5 -96t56.5 -154h-103q0 54 -37.5 93t-99.5 61q-67 23 -165 25h-28q-81 0 -141 -13q-84 -16 -138 -59t-54 -107v-899q0 -57 45 -97t119 -60q69 -19 168 -19h5q102 0 173 21 q70 20 111.5 59.5t41.5 95.5l103 2q0 -97 -62.5 -161.5t-165.5 -94.5q-83 -24 -201 -24h-6q-115 0 -194 22q-106 28 -172.5 93.5t-67.5 162.5z" />
<glyph unicode="D" horiz-adv-x="1083" d="M102 0v1436h498q65 0 129 -16.5t119.5 -49t90 -87.5t33.5 -124v-880q0 -57 -23 -104.5t-61.5 -79t-89.5 -53.5t-104.5 -32t-107.5 -10h-484zM207 104h379q53 0 106.5 12t103 43t64.5 77q4 12 6 92t2.5 204t0.5 235.5t-0.5 236t-0.5 155.5q0 44 -27 79t-69 54.5t-87 30 t-87 10.5h-8h-2h-381v-1229z" />
<glyph unicode="E" d="M102 276v1160h762v-103h-659v-563h659v-104h-659q0 -11 -0.5 -65t-0.5 -105.5t0.5 -110t2.5 -99.5t6 -53q22 -65 103.5 -97t168.5 -32h379v-104h-379v2h-8q-63 0 -125 15q-66 16 -123 47.5t-92 86.5t-35 125z" />
<glyph unicode="F" horiz-adv-x="942" d="M100 0v1436h766v-103h-661v-571h559v-105h-559q0 -12 -1 -302.5t-1 -354.5h-103z" />
<glyph unicode="G" horiz-adv-x="1079" d="M102 258v918v2q1 72 39.5 128.5t99 89.5t138.5 48q65 13 150 13q21 0 44 -1q113 -4 189 -31q96 -31 152.5 -94.5t56.5 -154.5l-103 2q0 53 -37.5 91t-99.5 60q-67 23 -165 26q-17 1 -33 1q-78 0 -136 -13q-84 -16 -138 -59t-54 -108v-918q0 -59 45.5 -99.5t118.5 -58.5 q70 -19 164 -19h10q101 1 172 21q70 20 111.5 59.5t41.5 96.5v356h-282v95h385v-451q0 -95 -63 -159.5t-165 -94.5q-84 -25 -200.5 -25t-200.5 23q-106 28 -172.5 93t-67.5 163z" />
<glyph unicode="H" horiz-adv-x="1052" d="M102 0v1436h101v-670h635v670h102v-1436h-102v664h-635v-664h-101z" />
<glyph unicode="I" horiz-adv-x="366" d="M129 0v1436h102v-1436h-102z" />
<glyph unicode="J" horiz-adv-x="847" d="M57 258l103 -2q0 -49 26 -87t67.5 -57.5t92.5 -29.5q27 -5 54 -5q24 0 48 5q50 8 92 26.5t68.5 55t26.5 82.5q0 996 -2 1188h106v-1174q0 -61 -23.5 -111.5t-63 -82.5t-90.5 -54t-108 -26q-26 -3 -51 -3q-31 0 -63 3q-56 6 -107 29t-90.5 55t-62.5 81t-23 107z" />
<glyph unicode="K" horiz-adv-x="1087" d="M109 0v1434h100v-725h35l663 725h125v-21l-663 -704h262q70 0 128.5 -12t113 -39.5t85.5 -82t31 -131.5v-444h-102v444q0 50 -23 86t-62 55t-81 27.5t-90 8.5h-422v-621h-100z" />
<glyph unicode="L" horiz-adv-x="839" d="M102 307v1127h105v-1127q0 -55 26.5 -96t70 -63.5t91 -33t97.5 -10.5h296v-104h-296q-61 0 -116 10t-106 33t-87.5 57.5t-58.5 87.5t-22 119z" />
<glyph unicode="M" horiz-adv-x="1351" d="M104 0v1434h127l435 -955l436 955h127v-1434h-105v1149l15 145h-6l-43 -137l-381 -813h-84l-381 813l-43 137h-6l14 -145v-1149h-105z" />
<glyph unicode="N" horiz-adv-x="1085" d="M102 0v1434h111l616 -1158l52 -135h6l-19 146v1147h103v-1434h-109l-616 1157l-51 137h-9l19 -145v-1149h-103z" />
<glyph unicode="O" horiz-adv-x="1075" d="M104 262v914q0 66 37 120t98 87t138.5 51t159 18t159 -18t138.5 -51t98 -87t37 -120v-914q0 -67 -37 -122t-98 -88.5t-138.5 -51.5t-159 -18t-159 18t-138.5 51.5t-98 88.5t-37 122zM207 1176l2 -904q0 -41 6 -53q18 -51 84 -85q65 -36 151 -44q43 -4 86 -4t86 4 q86 8 152 43t84 86q6 12 6 53l2 904q0 58 -49 100.5t-122 61.5t-158.5 19t-158.5 -19t-122 -61.5t-49 -100.5z" />
<glyph unicode="P" horiz-adv-x="942" d="M104 0v1434h385q65 0 129.5 -16.5t121.5 -48t92.5 -86.5t35.5 -124v-330q0 -88 -56.5 -152.5t-141 -94t-183.5 -29.5h-282v-553h-101zM205 655h282q72 0 134.5 18.5t104.5 59t42 96.5v330q0 46 -28 81.5t-73 54.5t-90 28t-88 10h-284v-678z" />
<glyph unicode="Q" horiz-adv-x="1077" d="M104 266v908q0 66 37.5 120t98 86.5t138.5 50.5t159.5 18t159.5 -18t138.5 -51t98 -86.5t37.5 -119.5v-908q0 -75 -39 -133l125 -143h-139l-62 71q-50 -32 -125.5 -51t-158.5 -23q-17 -1 -34 -1q-66 0 -133 12q-84 16 -150.5 48t-108.5 89t-42 131zM209 274q0 -27 6 -51 q20 -58 94.5 -92t163.5 -39q27 -2 54 -2q61 0 121 8q87 13 134 39l-135 142l137 2l74 -72q10 25 10 65v900q0 58 -49 100t-122 61q-71 19 -154 19h-5q-85 -1 -158 -20t-122 -61t-49 -99v-900z" />
<glyph unicode="R" horiz-adv-x="960" d="M102 0v1434h385q18 0 37 -1t59.5 -6.5t75 -15.5t74.5 -30.5t68.5 -48.5t47.5 -73t19 -100v-342q0 -83 -55 -146.5t-139 -80.5q83 -20 138.5 -80t55.5 -143v-367h-102v367q0 49 -29.5 86.5t-75.5 57t-92.5 29t-89.5 9.5h-276v-549h-101zM203 641h276q47 0 92.5 8 t91.5 26.5t74.5 55t28.5 86.5v342q0 61 -49.5 105t-110.5 61.5t-119 17.5h-284v-702z" />
<glyph unicode="S" horiz-adv-x="958" d="M49 272l101 -2q3 -62 47.5 -111t105.5 -67q89 -25 166 -25q138 0 236 80q96 80 96 204q1 75 -29 135q-30 62 -85.5 102.5t-113.5 66t-129 43.5q-110 28 -186 60t-125 84q-61 64 -78 162q-6 37 -6 74q1 60 17 118q28 94 90 152q45 42 115 68.5t146 33.5q26 2 52 2 q49 0 101 -8q78 -14 139 -45t99 -87t38 -128l-103 2q1 73 -61 117q-64 43 -148 51q-22 2 -44 2q-63 0 -128 -15q-88 -21 -137 -67q-66 -62 -74 -174q-1 -13 0 -26q0 -94 52 -159q21 -26 50 -45.5t72 -35t68 -23t78 -20.5q78 -20 138.5 -43t118 -59.5t94.5 -82.5 q38 -46 60 -112q22 -64 21 -141v-7q-3 -166 -133 -276q-63 -52 -156 -74q-76 -18 -151 -19q-17 0 -33 1q-92 5 -174 32q-93 32 -150.5 101t-56.5 161z" />
<glyph unicode="T" horiz-adv-x="985" d="M45 1343v91h883v-91h-389l-4 -1343h-105l4 1343h-389z" />
<glyph unicode="U" horiz-adv-x="1079" d="M102 268v1166h103v-1166q0 -82 80 -129q76 -49 229 -49h31q172 0 243 45q80 47 80 133v1166h103v-1166q0 -138 -129 -217q-103 -63 -279 -63h-16h-21h-16q-176 0 -279 63q-129 79 -129 217z" />
<glyph unicode="V" horiz-adv-x="1062" d="M102 461v975h105v-977q0 -43 6 -60t35 -45l284 -254l285 254q28 28 33.5 45t5.5 60v977h105v-975q0 -61 -17 -104t-61 -83l-330 -290h-43l-330 290q-44 40 -61 83t-17 104z" />
<glyph unicode="W" horiz-adv-x="1697" d="M102 459v975h103v-977q0 -42 6.5 -59.5t34.5 -45.5l256 -254l254 254q29 28 35 45t6 60v2v975h104v-975v-2q0 -43 5.5 -60t33.5 -45l256 -254l256 254q28 28 33.5 45t5.5 60v977h104v-975q0 -60 -17 -102.5t-60 -84.5l-299 -290h-45q-18 18 -81 77.5t-90.5 87t-73.5 75.5 t-81 91q-28 -35 -57.5 -68t-69.5 -72.5t-60 -59t-73.5 -69.5t-65.5 -62h-43l-301 290q-42 42 -59 84.5t-17 102.5z" />
<glyph unicode="X" horiz-adv-x="1036" d="M96 0v293q0 62 16 105t60 81l268 236l-268 237q-44 38 -60 81.5t-16 105.5v295h103v-297q0 -43 6 -60t35 -45l284 -254l285 254q28 28 33.5 45t5.5 60v297h104v-295q0 -62 -17 -105.5t-61 -81.5l-266 -237l266 -236q44 -38 61 -81.5t17 -104.5v-293h-104v295 q0 43 -5.5 59.5t-33.5 44.5l-285 254l-284 -254q-29 -28 -35 -44.5t-6 -59.5v-295h-103z" />
<glyph unicode="Y" horiz-adv-x="993" d="M80 1051v383h104v-385q0 -39 12 -64t42 -55l262 -275l262 275q29 29 41 54t12 65v385h105v-383q0 -59 -17.5 -101.5t-60.5 -85.5l-291 -303v-559h-102v559l-291 303q-43 43 -60.5 85.5t-17.5 101.5z" />
<glyph unicode="Z" horiz-adv-x="950" d="M63 193v75q0 86 40 166.5t103.5 145t140 126t153.5 118t140.5 110.5t103.5 114.5t40 120.5v91q0 43 -18 60t-59 17h-619v97h621q94 0 132 -38t38 -136v-91q-1 -65 -26 -124.5t-66.5 -107.5t-95 -93.5t-112.5 -86.5t-118 -82.5t-113 -86.5t-95.5 -92.5t-67 -106.5 t-27.5 -123v-73q0 -47 17.5 -68t55.5 -21h650v-102h-650q-87 0 -127.5 44.5t-40.5 146.5z" />
<glyph unicode="`" horiz-adv-x="376" d="M70 1585v14h133l59 -178h-90z" />
<glyph unicode="a" horiz-adv-x="952" d="M40 246q-4 24 -3 48q1 32 7 63q12 54 44.5 103.5t83.5 82.5q92 62 238 76q45 4 91 4q101 0 204 -21v131q0 49 -25 84q-51 71 -172 94q-36 6 -76 6.5t-86 -6.5q-130 -21 -188 -106l-88 55q44 70 140 110q98 42 202 44h13q97 0 191 -33q100 -35 148 -102q43 -61 43 -154 v-539q0 -96 100 -96v-92q-14 -1 -26 -1q-117 0 -158 83q-109 -107 -299 -107q-64 0 -150 21q-68 18 -119 57.5t-79 88.5t-36 106zM142 264q6 -56 48 -104t113 -68q52 -14 121 -14q44 0 89.5 9t90 27.5t73 54t28.5 81.5v258q-81 21 -163 26q-20 1 -40 1q-62 1 -125 -11 q-83 -16 -139 -55q-54 -37 -78 -93q-19 -45 -19 -89q0 -11 1 -23z" />
<glyph unicode="b" horiz-adv-x="970" d="M102 0v1442h105v-555q41 48 107 77q68 28 140 33q17 1 33 1q56 0 114 -12q75 -16 134.5 -51.5t97 -95t37.5 -132.5v-453q0 -97 -64.5 -162.5t-170.5 -93.5q-66 -15 -133 -15q-16 0 -30 1q-82 4 -157.5 38.5t-115.5 90.5v-113h-97zM207 299q0 -74 44.5 -125t105.5 -71.5 t130 -20.5t121 14q71 20 114.5 60.5t43.5 97.5v457q0 53 -31 93.5t-80 61t-109 29.5q-29 4 -58 4q-32 -1 -62 -5q-60 -10 -108.5 -29.5t-79.5 -56.5t-31 -83v-426z" />
<glyph unicode="c" horiz-adv-x="954" d="M98 268v469q0 98 66 163.5t168 94.5q82 21 149 21q64 0 150 -21q105 -30 169 -95t64 -163h-102q0 59 -44 99.5t-116 60.5q-59 16 -121 16q-61 0 -123 -16q-66 -17 -111.5 -58t-45.5 -104v-467q0 -63 44.5 -103.5t112.5 -60.5q61 -16 122 -16l122 16h2q71 20 114.5 61 t43.5 99h102q0 -97 -64.5 -162.5t-168.5 -93.5v-2q-74 -20 -149 -20t-150 20q-103 28 -168.5 95t-65.5 167z" />
<glyph unicode="d" d="M100 254v453q0 73 37.5 132.5t96.5 94.5q60 36 135 52q58 13 114 12q17 0 34 -1q73 -5 139.5 -33.5t107.5 -76.5v555h102v-1442h-94v113q-40 -56 -116.5 -90.5t-158.5 -38.5q-15 -1 -30 -1q-67 0 -133 15q-104 28 -169 93.5t-65 162.5zM203 254q0 -57 43.5 -97.5 t115.5 -60.5q52 -14 121 -14q51 0 99 12.5t89.5 37t67 68t25.5 99.5v426q0 46 -31 83t-80 57q-49 19 -109 29q-31 5 -61 5q-29 0 -59 -4q-60 -9 -108.5 -29.5t-79.5 -61t-31 -93.5v-457h-2z" />
<glyph unicode="e" horiz-adv-x="950" d="M102 287v454q0 96 65 161t171 95q74 21 148 21t149 -21q65 -19 114 -60.5t76 -92.5q27 -50 34 -110q2 -19 2 -39q1 -39 -9 -76q-14 -55 -54 -105t-100 -82q-50 -27 -122 -40t-122 -14h-27q-44 0 -110 2q-87 3 -110 3v-104q0 -50 24 -86q55 -74 170 -93q40 -8 81 -8l81 8 q128 17 191 105l88 -53q-77 -125 -264 -154q-51 -9 -99 -9q-42 0 -80 7q-80 12 -146.5 47t-105.5 88q-45 64 -45 156zM207 473q5 1 111 -1h27q90 0 161 8q82 10 143 40q50 24 80 66q29 42 33 88q1 9 1 19q1 37 -11 73q-14 46 -52.5 82t-91.5 51q-61 16 -121.5 15.5 t-121.5 -15.5q-71 -20 -114.5 -60.5t-43.5 -97.5v-268z" />
<glyph unicode="f" horiz-adv-x="591" d="M31 911v95h176v149q0 83 30 142.5t83 91t116 44.5q48 10 103 10q17 0 34 -1v-94q-48 -1 -80 -5t-69.5 -15.5t-60 -31.5t-37.5 -55.5t-15 -85.5v-149h242v-95h-242v-911h-104v911h-176z" />
<glyph unicode="g" horiz-adv-x="983" d="M102 451v292q0 97 65 162.5t169 93.5q74 21 149 21q79 0 150 -21q54 -13 110 -47l72 76l78 -67l-72 -76q45 -61 45 -142v-292q0 -91 -55.5 -154t-150.5 -96q-77 -23 -130 -25q-23 -2 -47 -2q-40 0 -84 6h-2q-23 3 -53 10q-41 0 -63 -24t-9.5 -51t56.5 -35q41 -7 107 -8 q49 -2 92 -2h27q2 1 5 1q51 0 107 -11q59 -10 99 -32t66.5 -71t26.5 -123v-37q0 -173 -192 -227q-67 -21 -166 -21q-95 0 -170 19q-208 46 -219 221q-1 15 -1 29q0 42 9 69h102q-8 -30 -8 -61q0 -15 2 -31q4 -50 39 -80t96 -49q68 -20 141 -20h11q78 2 135 22q63 22 90 49 t27 80v37q0 58 -31.5 91t-81 41.5t-111.5 11.5q-28 1 -56 1q-32 0 -64 -1q-15 -1 -30 -1q-42 0 -79 7q-73 12 -112 56q-35 38 -35 84v10q5 52 49 89q12 12 22 17q-125 74 -125 211zM207 451q0 -68 59 -111.5t150 -56.5q31 -5 71 -5q18 0 37 1q61 7 105 20q62 22 99.5 60.5 t37.5 91.5v292q0 57 -43.5 97.5t-114.5 60.5q-55 14 -123 14t-120 -14q-71 -20 -114.5 -60.5t-43.5 -97.5v-292z" />
<glyph unicode="h" horiz-adv-x="968" d="M104 0v1442h105v-516q66 62 165 84q59 14 118 14q39 0 77 -6q96 -15 170 -60q128 -74 131 -210v-7v-741h-102v741v4q-3 78 -82 125q-75 47 -199 50h-6q-78 -2 -144.5 -26.5t-100.5 -68.5q-27 -39 -27 -92v-733h-105z" />
<glyph unicode="i" horiz-adv-x="360" d="M123 1255v183h117v-183h-117zM129 0v1006h104v-1006h-104z" />
<glyph unicode="j" horiz-adv-x="344" d="M-111 -332h19q223 0 223 187v1155h102v-1153q0 -80 -27 -139t-75.5 -92.5t-108.5 -48.5q-54 -13 -116 -13h-17v104zM127 1264v182h111v-182h-111z" />
<glyph unicode="k" horiz-adv-x="952" d="M102 0v1442h103v-934l538 498h138v-11l-465 -426q54 11 106 11q51 0 102 -10q102 -22 171.5 -87.5t72.5 -160.5v-9v-313h-102v313v4q-2 59 -47 101.5t-113 57.5q-64 14 -132 14h-9q-73 -1 -137.5 -26t-96.5 -67q-26 -38 -26 -92v-305h-103z" />
<glyph unicode="l" horiz-adv-x="407" d="M104 217v1217h103v-1219q0 -77 33 -104t116 -27v-92q-18 -1 -35 -1q-105 -1 -157 43q-60 50 -60 183z" />
<glyph unicode="m" horiz-adv-x="1544" d="M100 0v1006h105v-97q99 109 278 109q98 0 177 -38t110 -108q39 69 123 105.5t178 36.5q69 -1 131 -19t113 -51.5t81.5 -89t30.5 -125.5v-729h-104v731q0 92 -74.5 140.5t-179.5 48.5q-101 0 -174.5 -46t-79.5 -133v-741h-102v741q-6 91 -78 139q-69 47 -160 46h-8 q-104 -3 -183 -61.5t-79 -149.5v-715h-105z" />
<glyph unicode="n" horiz-adv-x="970" d="M100 0v1008h105v-95q99 107 278 107h8q69 0 133 -16q68 -18 123 -52t88 -91t33 -130v-731h-104v733q0 86 -83.5 136.5t-195.5 50.5q-114 0 -197 -52.5t-83 -150.5v-717h-105z" />
<glyph unicode="o" horiz-adv-x="960" d="M96 266v475q0 97 65 162.5t169 93.5q73 21 149 21q79 0 150 -21q104 -28 168.5 -93.5t64.5 -162.5v-475q0 -91 -56 -154t-151 -96q-79 -26 -170 -26q-51 0 -104 8q-125 22 -205 90.5t-80 177.5zM199 266q0 -66 56.5 -111t141.5 -59q42 -7 82 -6q76 0 144 23 q62 21 99.5 60.5t37.5 92.5v475q0 57 -43.5 97.5t-114.5 60.5q-62 16 -123 16t-123 -16q-71 -20 -114 -60t-43 -98v-475z" />
<glyph unicode="p" d="M100 -440v1441h95v-112q40 57 116.5 91.5t158.5 38.5q14 1 28 1q68 0 135 -16q104 -28 168.5 -93.5t64.5 -162.5v-465q0 -73 -37.5 -132.5t-97 -94.5t-134.5 -52q-58 -13 -114 -13q-17 0 -33 1q-73 5 -139.5 33.5t-107.5 76.5v-542h-103zM203 266q0 -46 31 -83.5 t80 -57.5t108 -29q31 -5 62 -5q29 0 58 4q60 9 109 29.5t80 61t31 93.5v469h2q0 57 -44 97t-116 60q-55 15 -121 15q-51 0 -98.5 -12.5t-89.5 -37.5t-67 -68.5t-25 -99.5v-436z" />
<glyph unicode="q" horiz-adv-x="962" d="M98 283v465q0 97 65 162.5t169 93.5q67 16 135 16q14 0 28 -1q82 -4 158 -38.5t115 -91.5v112h96v-1441h-104v542q-40 -48 -106.5 -76.5t-139.5 -33.5q-16 -1 -33 -1q-56 0 -114 13q-75 17 -134.5 52t-97 94.5t-37.5 132.5zM201 279q0 -53 31 -93.5t80 -61t108 -29.5 q29 -4 59 -4t61 5q60 9 109 29t80 57.5t31 83.5v436q0 74 -44 125t-105 72t-130 21q-65 0 -123 -15q-71 -20 -114 -60t-43 -97v-469z" />
<glyph unicode="r" horiz-adv-x="653" d="M102 0v457v262v287h101v-111q32 45 83.5 75t109.5 42q51 10 104 10h14q60 -2 115 -16l-17 -97q-40 13 -94 13q-2 0 -3 1q-52 0 -104 -14q-54 -14 -100 -38t-75 -63.5t-29 -86.5v-721h-105z" />
<glyph unicode="s" horiz-adv-x="911" d="M74 193l88 57q26 -62 79.5 -100.5t116.5 -49.5q50 -9 97 -9q13 0 25 1q59 3 110 17q72 20 116 61t44 100q0 29 -8.5 53t-21.5 41t-37 30t-44.5 21t-55 15t-57 10.5t-61.5 8.5q-156 21 -217 43q-129 49 -151 173q-5 31 -5 66q1 101 66 169t170 99q63 19 136 21h23 q61 0 122 -12q72 -14 132 -54t88 -102l-81 -53q-27 46 -75 75q-48 30 -103 38q-41 6 -81 6l-29 -1q-55 -3 -106 -18q-72 -22 -115.5 -64.5t-43.5 -103.5q0 -29 8.5 -53t21 -40.5t37 -30t44 -21t55 -15t57 -10.5t61.5 -8q159 -21 224 -48q136 -56 148 -201q1 -16 1 -34 q-1 -99 -66 -165.5t-170 -96.5q-68 -20 -150 -20q-2 0 -5 -1q-79 1 -156 19q-79 18 -142.5 66.5t-88.5 120.5z" />
<glyph unicode="t" horiz-adv-x="591" d="M25 913v93h176v432h102v-432h244v-93q-162 0 -244 -2v-628q0 -50 15 -85.5t37.5 -55.5t60 -31.5t69.5 -15.5t80 -5v-94q-17 -1 -34 -1q-54 0 -102 10q-63 13 -115.5 44.5t-82.5 90.5t-30 141v632h-176z" />
<glyph unicode="u" horiz-adv-x="983" d="M100 276v728h103v-728q0 -87 84 -137.5t196 -50.5q72 0 134.5 21.5t104.5 69t42 112.5v713h102v-1004h-102v96q-94 -104 -279 -108q-74 0 -141 17t-122.5 51t-88.5 91t-33 129z" />
<glyph unicode="v" horiz-adv-x="950" d="M100 426v578h105v-578q0 -34 6.5 -50.5t28.5 -37.5l237 -225l238 225q23 22 30 38.5t7 49.5v578h102v-578q0 -55 -15.5 -90.5t-64.5 -83.5l-276 -262h-41l-277 262q-49 48 -64.5 83.5t-15.5 90.5z" />
<glyph unicode="w" horiz-adv-x="1509" d="M98 426v578h105v-578q0 -32 6.5 -48.5t28.5 -39.5l215 -225l215 225q23 23 30 39.5t7 48.5v578h102v-578q0 -32 7 -48.5t30 -39.5l215 -225l215 225q22 23 28.5 39.5t6.5 48.5v578h104v-578q0 -54 -15.5 -89t-64.5 -85l-256 -262h-39l-282 299l-283 -299h-39l-256 262 q-49 50 -64.5 85t-15.5 89z" />
<glyph unicode="x" horiz-adv-x="942" d="M90 0v127q0 56 15 91.5t65 82.5l211 201l-211 200q-50 47 -65 83t-15 92v127h103v-127q0 -33 6.5 -50.5t29.5 -38.5l236 -225h2l235 225q24 21 30.5 38t6.5 51v127h105v-127q0 -55 -15.5 -91t-64.5 -84l-213 -200l213 -201q49 -48 64.5 -83.5t15.5 -90.5v-127h-105v127 q0 33 -6.5 50t-30.5 38l-235 225h-2l-236 -225q-22 -21 -29 -38.5t-7 -49.5v-127h-103z" />
<glyph unicode="y" horiz-adv-x="964" d="M98 264v740h105v-738q0 -84 80 -133q76 -46 198 -49l6 2q80 0 147 24t101 70q27 36 27 92v732h102v-1143v-19q0 -100 -65 -166.5t-166 -93.5q-70 -20 -150 -20q-110 0 -210 40.5t-146 125.5l88 47q40 -58 113 -84.5t155 -26.5q69 0 121 14q67 19 112 60.5t46 103.5v19v16 v201q-67 -62 -166 -85q-60 -14 -119 -14q-38 0 -77 6q-96 15 -171 60q-131 77 -131 219z" />
<glyph unicode="z" horiz-adv-x="882" d="M74 198q13 52 61 93l559 493q32 29 32 57q0 11 -5 22q-18 38 -78 38h-551v103h555q50 -1 91 -20t63.5 -51t28.5 -69q2 -10 2 -21q0 -27 -12 -57q-17 -40 -56 -73l-559 -494q-31 -29 -31 -57q0 -11 5 -22q18 -38 79 -38h573v-102h-577q-63 1 -109.5 30.5t-64.5 72.5 q-11 25 -11 53q0 21 5 42z" />
<glyph unicode="&#xa1;" horiz-adv-x="376" d="M127 887v147h117v-147h-117zM129 -403v1126h109v-1126h-109z" />
<glyph unicode="&#xa2;" horiz-adv-x="954" d="M98 268v469q0 98 66 163.5t168 94.5q70 17 106 19v135h97v-137q35 -2 96 -17q105 -30 169 -95t64 -163h-102q0 59 -44 99.5t-116 60.5q-59 16 -121 16q-61 0 -123 -16q-66 -17 -111.5 -58t-45.5 -104v-467q0 -63 44.5 -103.5t112.5 -60.5q122 -32 244 0h2q71 20 114.5 61 t43.5 99h102q0 -97 -64.5 -162.5t-168.5 -93.5v-2q-36 -9 -96 -16v-140h-97v140q-47 3 -106 16q-103 28 -168.5 95t-65.5 167z" />
<glyph unicode="&#xa3;" horiz-adv-x="1259" d="M82 0v98h201v516h-189v93h189v450q0 61 28.5 111.5t76.5 82.5t110.5 53.5t132 25.5t138.5 -2t131.5 -29t110.5 -54.5t76.5 -79.5t28.5 -104v-82h-96v82q0 42 -34 77.5t-89 55.5t-121 31t-133 4t-123 -25t-93 -56.5t-40 -90.5q-3 -45 -3.5 -125.5t0.5 -175.5l1 -94v-55 h430v-93h-430v-516h406q38 0 66.5 2t63.5 11t57.5 25t38 45.5t15.5 70.5v78h103v-74q0 -256 -344 -256h-709z" />
<glyph unicode="&#xa8;" horiz-adv-x="729" d="M131 1315v129h121v-129h-121zM434 1315v129h121v-129h-121z" />
<glyph unicode="&#xad;" horiz-adv-x="649" d="M88 510v102h440v-102h-440z" />
<glyph unicode="&#xb4;" horiz-adv-x="411" d="M125 1421l59 178h133v-14l-102 -164h-90z" />
<glyph unicode="&#xb8;" horiz-adv-x="559" d="M102 -326l58 50q24 -26 70.5 -33t84 9.5t37.5 51.5q0 15 -7 26.5t-21 18.5t-28.5 11.5t-35 6t-34.5 2.5t-34.5 1h-27.5v12l69 156h78l-47 -109q95 4 144 -36t47 -93q-3 -71 -74 -110.5t-155.5 -29.5t-123.5 66z" />
<glyph unicode="&#xbf;" horiz-adv-x="989" d="M72 -33q-3 231 188 340q28 16 73 41q26 15 38 21t30 18.5t24 16.5t17 18t13.5 18.5t8.5 24t6.5 28t2.5 36.5t2 44.5t1 55.5q1 33 1 51v133h103v-135q0 -79 -1 -125.5t-13 -90t-18.5 -62.5t-39.5 -48t-52 -40.5t-80 -46.5q-41 -24 -65 -38q-140 -84 -137 -260 q0 -119 96 -198q54 -45 125 -64t138.5 -15.5t138.5 23.5q61 18 104.5 67.5t46.5 113.5h103q0 -92 -58 -161.5t-151 -99.5q-81 -27 -173.5 -32.5t-184.5 17t-154 73.5q-130 107 -133 276zM473 930v121h113v-121h-113z" />
<glyph unicode="&#xc0;" horiz-adv-x="1093" d="M102 0v1171q0 136 127 211q73 44 190.5 60t234 0t188.5 -60q127 -75 127 -211h2v-1171h-103v561h-663v-561h-103zM205 664h663v507q0 76 -80 125q-88 54 -253 53.5t-252 -53.5q-78 -48 -78 -125v-507zM389 1677v13h133l60 -160h-90z" />
<glyph unicode="&#xc1;" horiz-adv-x="1093" d="M102 0h103v561h663v-561h103v1171h-2q0 136 -127 211q-72 44 -188.5 60t-234 0t-190.5 -60q-127 -75 -127 -211v-1171zM205 664v507q0 77 78 125q87 53 252 53.5t253 -53.5q80 -49 80 -125v-507h-663zM475 1536l64 147h141v-10l-109 -137h-96z" />
<glyph unicode="&#xc2;" horiz-adv-x="1093" d="M102 0h103v561h663v-561h103v1171h-2q0 136 -127 211q-72 44 -188.5 60t-234 0t-190.5 -60q-127 -75 -127 -211v-1171zM205 664v507q0 77 78 125q87 53 252 53.5t253 -53.5q80 -49 80 -125v-507h-663zM354 1528l125 141h131l121 -141h-100l-86 71l-86 -71h-105z" />
<glyph unicode="&#xc3;" horiz-adv-x="1093" d="M102 0v1171q0 136 127 211q73 44 190.5 60t234 0t188.5 -60q127 -75 127 -211h2v-1171h-103v561h-663v-561h-103zM205 664h663v507q0 76 -80 125q-88 54 -253 53.5t-252 -53.5q-78 -48 -78 -125v-507zM344 1554q8 42 44 76t77 37q43 4 94 -29.5t66 -31.5q38 3 47 45 l63 -27q-8 -41 -36.5 -67t-71.5 -29q-39 -2 -86.5 31t-67.5 32q-23 -2 -42 -18t-23 -39z" />
<glyph unicode="&#xc4;" horiz-adv-x="1093" d="M102 0v1171q0 136 127 211q73 44 190.5 60t234 0t188.5 -60q127 -75 127 -211h2v-1171h-103v561h-663v-561h-103zM205 664h663v507q0 76 -80 125q-88 54 -253 53.5t-252 -53.5q-78 -48 -78 -125v-507zM330 1532v113h123v-113h-123zM639 1532v113h125v-113h-125z" />
<glyph unicode="&#xc5;" horiz-adv-x="1093" d="M102 0h103v561h663v-561h103v1171h-2q0 136 -127 211q-72 44 -188.5 60t-234 0t-190.5 -60q-127 -75 -127 -211v-1171zM205 664v507q0 77 78 125q87 53 252 53.5t253 -53.5q80 -49 80 -125v-507h-663zM416 1608q0 46 34.5 79t86.5 33q51 0 86.5 -33t35.5 -79 q0 -47 -35.5 -80t-86.5 -33q-52 0 -86.5 32.5t-34.5 80.5zM487 1606q0 -20 14.5 -32.5t37.5 -12.5q21 0 35 12.5t14 32.5t-14.5 33.5t-34.5 13.5q-23 0 -37.5 -13.5t-14.5 -33.5z" />
<glyph unicode="&#xc6;" horiz-adv-x="1699" d="M102 0v1157q0 136 127 211q115 68 310 68h1056v-103h-659v-639h659v-104h-659q0 -12 -0.5 -57.5t-0.5 -86.5t0.5 -87.5t2.5 -80t6 -45.5q22 -65 104 -97t169 -32h378v-104h-378v2q-68 -1 -133.5 15t-122.5 47.5t-92 86.5t-35 125v314h-629v-590h-103zM205 692h629v643 h-299q-166 0 -252 -53q-78 -48 -78 -125v-465z" />
<glyph unicode="&#xc7;" horiz-adv-x="1056" d="M102 268v899q1 107 78.5 175.5t198.5 91.5q82 16 194.5 12t188.5 -29q96 -33 152.5 -96t56.5 -154h-103q0 54 -37.5 93t-99.5 61q-67 22 -165.5 24.5t-168.5 -12.5q-84 -16 -138 -59t-54 -107v-899q0 -57 45 -97t119 -60q71 -19 173 -18.5t173 20.5q70 20 111.5 59.5 t41.5 95.5l103 2q0 -97 -62.5 -161.5t-165.5 -94.5q-71 -19 -159 -22l-27 -64q95 4 144 -36t47 -93q-2 -54 -46.5 -90.5t-102 -46t-116.5 6.5t-88 57l58 49q24 -26 70.5 -33t84 9.5t37.5 51.5q0 15 -7 26.5t-21 18.5t-28.5 11.5t-35 6t-34.5 2.5t-34.5 1h-27.5v12l49 111 q-101 3 -164 20q-106 28 -172.5 93.5t-67.5 162.5z" />
<glyph unicode="&#xc8;" d="M102 276v1160h762v-103h-659v-563h659v-104h-659q0 -11 -0.5 -65t-0.5 -105.5t0.5 -110t2.5 -99.5t6 -53q22 -65 103.5 -97t168.5 -32h379v-104h-379v2q-68 -1 -133.5 15t-122.5 47.5t-92 86.5t-35 125zM356 1657v10h136l61 -141h-92z" />
<glyph unicode="&#xc9;" d="M102 276q0 -70 35 -125t92 -86.5t122.5 -47.5t133.5 -15v-2h379v104h-379q-87 0 -168.5 32t-103.5 97q-4 12 -6 53t-2.5 99.5t-0.5 110t0.5 105.5t0.5 65h659v104h-659v563h659v103h-762v-1160zM430 1526l62 141h135v-10l-105 -131h-92z" />
<glyph unicode="&#xca;" d="M102 276q0 -70 35 -125t92 -86.5t122.5 -47.5t133.5 -15v-2h379v104h-379q-87 0 -168.5 32t-103.5 97q-4 12 -6 53t-2.5 99.5t-0.5 110t0.5 105.5t0.5 65h659v104h-659v563h659v103h-762v-1160zM326 1526l125 137h131l120 -137h-100l-86 78l-86 -78h-104z" />
<glyph unicode="&#xcb;" d="M102 276v1160h762v-103h-659v-563h659v-104h-659q0 -11 -0.5 -65t-0.5 -105.5t0.5 -110t2.5 -99.5t6 -53q22 -65 103.5 -97t168.5 -32h379v-104h-379v2q-68 -1 -133.5 15t-122.5 47.5t-92 86.5t-35 125zM305 1536v104h123v-104h-123zM614 1536v104h123v-104h-123z" />
<glyph unicode="&#xcc;" horiz-adv-x="366" d="M39 1657v10h135l62 -141h-93zM129 0v1436h102v-1436h-102z" />
<glyph unicode="&#xcd;" horiz-adv-x="366" d="M129 0h102v1436h-102v-1436zM135 1530l62 141h135v-10l-105 -131h-92z" />
<glyph unicode="&#xce;" horiz-adv-x="366" d="M0 1526l121 145h129l119 -145h-99l-86 82l-84 -82h-100zM129 0h102v1436h-102v-1436z" />
<glyph unicode="&#xcf;" horiz-adv-x="366" d="M-18 1528v119h120v-119h-120zM129 0v1436h102v-1436h-102zM285 1528v119h121v-119h-121z" />
<glyph unicode="&#xd1;" horiz-adv-x="1085" d="M102 0v1434h111l616 -1158l52 -135h6l-19 146v1147h103v-1434h-109l-616 1157l-51 137h-9l19 -145v-1149h-103zM350 1548q8 42 44 76t77 37q43 4 94 -30t66 -32q37 3 47 46l63 -27q-8 -41 -36.5 -67t-71.5 -29q-39 -2 -86.5 31t-67.5 32q-23 -2 -42 -18t-23 -39z" />
<glyph unicode="&#xd2;" horiz-adv-x="1075" d="M104 262v914q0 66 37 120t98 87t138.5 51t159 18t159 -18t138.5 -51t98 -87t37 -120v-914q0 -67 -37 -122t-98 -88.5t-138.5 -51.5t-159 -18t-159 18t-138.5 51.5t-98 88.5t-37 122zM207 1176l2 -904q0 -41 6 -53q18 -51 84 -85.5t151.5 -43t171.5 0t152 43t84 85.5 q6 12 6 53l2 904q0 58 -49 100.5t-122 61.5t-158.5 19t-158.5 -19t-122 -61.5t-49 -100.5zM412 1661v10h135l61 -141h-92z" />
<glyph unicode="&#xd3;" horiz-adv-x="1075" d="M104 262q0 -67 37 -122t98 -88.5t138.5 -51.5t159 -18t159 18t138.5 51.5t98 88.5t37 122v914q0 66 -37 120t-98 87t-138.5 51t-159 18t-159 -18t-138.5 -51t-98 -87t-37 -120v-914zM207 1176q0 58 49 100.5t122 61.5t158.5 19t158.5 -19t122 -61.5t49 -100.5l-2 -904 q0 -41 -6 -53q-18 -51 -84 -85.5t-151.5 -43t-171.5 0t-152 43t-84 85.5q-6 12 -6 53zM475 1526l62 141h135v-10l-105 -131h-92z" />
<glyph unicode="&#xd4;" horiz-adv-x="1075" d="M104 262q0 -67 37 -122t98 -88.5t138.5 -51.5t159 -18t159 18t138.5 51.5t98 88.5t37 122v914q0 66 -37 120t-98 87t-138.5 51t-159 18t-159 -18t-138.5 -51t-98 -87t-37 -120v-914zM207 1176q0 58 49 100.5t122 61.5t158.5 19t158.5 -19t122 -61.5t49 -100.5l-2 -904 q0 -41 -6 -53q-18 -51 -84 -85.5t-151.5 -43t-171.5 0t-152 43t-84 85.5q-6 12 -6 53zM348 1526l125 137h131l121 -137h-100l-86 78l-86 -78h-105z" />
<glyph unicode="&#xd5;" horiz-adv-x="1075" d="M104 262v914q0 66 37 120t98 87t138.5 51t159 18t159 -18t138.5 -51t98 -87t37 -120v-914q0 -67 -37 -122t-98 -88.5t-138.5 -51.5t-159 -18t-159 18t-138.5 51.5t-98 88.5t-37 122zM207 1176l2 -904q0 -41 6 -53q18 -51 84 -85.5t151.5 -43t171.5 0t152 43t84 85.5 q6 12 6 53l2 904q0 58 -49 100.5t-122 61.5t-158.5 19t-158.5 -19t-122 -61.5t-49 -100.5zM340 1550q8 42 44 76t77 37q43 4 94 -29.5t66 -31.5q38 3 47 45l63 -27q-8 -41 -36.5 -67t-71.5 -29q-39 -2 -86.5 31t-67.5 32q-23 -2 -42.5 -18t-23.5 -39z" />
<glyph unicode="&#xd6;" horiz-adv-x="1075" d="M104 262v914q0 66 37 120t98 87t138.5 51t159 18t159 -18t138.5 -51t98 -87t37 -120v-914q0 -67 -37 -122t-98 -88.5t-138.5 -51.5t-159 -18t-159 18t-138.5 51.5t-98 88.5t-37 122zM207 1176l2 -904q0 -41 6 -53q18 -51 84 -85.5t151.5 -43t171.5 0t152 43t84 85.5 q6 12 6 53l2 904q0 58 -49 100.5t-122 61.5t-158.5 19t-158.5 -19t-122 -61.5t-49 -100.5zM330 1532v108h119v-108h-119zM631 1532v108h121v-108h-121z" />
<glyph unicode="&#xd8;" horiz-adv-x="1075" d="M104 262v914q0 92 70.5 158t173.5 92.5t221 22t213 -43.5l49 108h107l-70 -155q101 -75 101 -182v-914q0 -94 -72.5 -162t-178 -94.5t-225.5 -20.5t-214 48l-54 -119h-104l74 168q-91 74 -91 180zM207 1176l2 -904q0 -41 6 -53q6 -20 23 -41l507 1141q-70 30 -164 35.5 t-176.5 -11t-140 -61t-57.5 -106.5zM319 123q86 -37 203.5 -39.5t215.5 34t120 101.5q6 12 6 53l2 904q0 51 -39 90z" />
<glyph unicode="&#xd9;" horiz-adv-x="1079" d="M102 268v1166h103v-1166q0 -82 80 -129q76 -49 229 -49h31q172 0 243 45q80 47 80 133v1166h103v-1166q0 -138 -129 -217q-108 -66 -295 -63h-21q-187 -3 -295 63q-129 79 -129 217zM401 1657v10h136l61 -141h-92z" />
<glyph unicode="&#xda;" horiz-adv-x="1079" d="M102 268q0 -138 129 -217q108 -66 295 -63h21q187 -3 295 63q129 79 129 217v1166h-103v-1166q0 -86 -80 -133q-71 -45 -243 -45h-31q-153 0 -229 49q-80 47 -80 129v1166h-103v-1166zM455 1526l61 141h135v-10l-104 -131h-92z" />
<glyph unicode="&#xdb;" horiz-adv-x="1079" d="M102 268q0 -138 129 -217q108 -66 295 -63h21q187 -3 295 63q129 79 129 217v1166h-103v-1166q0 -86 -80 -133q-71 -45 -243 -45h-31q-153 0 -229 49q-80 47 -80 129v1166h-103v-1166zM365 1528l120 137h129l117 -137h-98l-84 78l-84 -78h-100z" />
<glyph unicode="&#xdc;" horiz-adv-x="1079" d="M102 268v1166h103v-1166q0 -82 80 -129q76 -49 229 -49h31q172 0 243 45q80 47 80 133v1166h103v-1166q0 -138 -129 -217q-108 -66 -295 -63h-21q-187 -3 -295 63q-129 79 -129 217zM336 1528v117h123v-117h-123zM641 1528v117h121v-117h-121z" />
<glyph unicode="&#xdd;" horiz-adv-x="993" d="M80 1051q0 -59 17.5 -101.5t60.5 -85.5l291 -303v-559h102v559l291 303q43 43 60.5 85.5t17.5 101.5v383h-105v-385q0 -40 -12 -65t-41 -54l-262 -275l-262 275q-30 30 -42 55t-12 64v385h-104v-383zM434 1536l64 156h139v-13l-107 -143h-96z" />
<glyph unicode="&#xe0;" horiz-adv-x="952" d="M40.5 246q-8.5 57 3 111t44.5 103.5t84 82.5q92 62 238 76t295 -17v131q0 49 -25 84q-51 71 -172 94q-71 13 -162 0q-130 -21 -188 -106l-88 55q44 70 140.5 110.5t201 43t204 -32.5t148.5 -102q43 -61 43 -154v-539q0 -96 100 -96v-92q-139 -10 -184 82 q-109 -107 -299 -107q-64 0 -150 21q-68 18 -119 57.5t-78.5 88.5t-36 106zM142.5 263.5q6.5 -55.5 48 -103.5t112.5 -68q52 -14 121 -14q44 0 89.5 9t90 27.5t73 54t28.5 81.5v258q-80 21 -162.5 26t-165.5 -10.5t-139 -54.5q-53 -37 -77.5 -93.5t-18 -112zM313 1358v14 h133l60 -178h-90z" />
<glyph unicode="&#xe1;" horiz-adv-x="952" d="M40.5 246q8.5 -57 36 -106t78.5 -88.5t119 -57.5q86 -21 150 -21q190 0 299 107q45 -92 184 -82v92q-100 0 -100 96v539q0 93 -43 154q-49 67 -148.5 102t-204 32.5t-201 -43t-140.5 -110.5l88 -55q58 85 188 106q91 13 162 0q121 -23 172 -94q25 -35 25 -84v-131 q-149 31 -295 17t-238 -76q-51 -33 -84 -82.5t-44.5 -103.5t-3 -111zM142.5 263.5q-6.5 55.5 18 112t77.5 93.5q56 39 139 54.5t165.5 10.5t162.5 -26v-258q0 -46 -28.5 -81.5t-73 -54t-90 -27.5t-89.5 -9q-69 0 -121 14q-71 20 -112.5 68t-48 103.5zM385 1196l59 178h134 v-14l-103 -164h-90z" />
<glyph unicode="&#xe2;" horiz-adv-x="952" d="M40.5 246q8.5 -57 36 -106t78.5 -88.5t119 -57.5q86 -21 150 -21q190 0 299 107q45 -92 184 -82v92q-100 0 -100 96v539q0 93 -43 154q-49 67 -148.5 102t-204 32.5t-201 -43t-140.5 -110.5l88 -55q58 85 188 106q91 13 162 0q121 -23 172 -94q25 -35 25 -84v-131 q-149 31 -295 17t-238 -76q-51 -33 -84 -82.5t-44.5 -103.5t-3 -111zM142.5 263.5q-6.5 55.5 18 112t77.5 93.5q56 39 139 54.5t165.5 10.5t162.5 -26v-258q0 -46 -28.5 -81.5t-73 -54t-90 -27.5t-89.5 -9q-69 0 -121 14q-71 20 -112.5 68t-48 103.5zM264 1190l123 170h131 l121 -170h-100l-86 96l-86 -96h-103z" />
<glyph unicode="&#xe3;" horiz-adv-x="952" d="M40.5 246q-8.5 57 3 111t44.5 103.5t84 82.5q92 62 238 76t295 -17v131q0 49 -25 84q-51 71 -172 94q-71 13 -162 0q-130 -21 -188 -106l-88 55q44 70 140.5 110.5t201 43t204 -32.5t148.5 -102q43 -61 43 -154v-539q0 -96 100 -96v-92q-139 -10 -184 82 q-109 -107 -299 -107q-64 0 -150 21q-68 18 -119 57.5t-78.5 88.5t-36 106zM142.5 263.5q6.5 -55.5 48 -103.5t112.5 -68q52 -14 121 -14q44 0 89.5 9t90 27.5t73 54t28.5 81.5v258q-80 21 -162.5 26t-165.5 -10.5t-139 -54.5q-53 -37 -77.5 -93.5t-18 -112zM244 1214 q8 42 44 76t77 37q43 4 93.5 -29.5t65.5 -31.5q38 3 47 45l64 -27q-8 -41 -37 -67t-72 -29q-39 -2 -86 31t-67 32q-23 -2 -42.5 -18t-23.5 -39z" />
<glyph unicode="&#xe4;" horiz-adv-x="952" d="M40.5 246q-8.5 57 3 111t44.5 103.5t84 82.5q92 62 238 76t295 -17v131q0 49 -25 84q-51 71 -172 94q-71 13 -162 0q-130 -21 -188 -106l-88 55q44 70 140.5 110.5t201 43t204 -32.5t148.5 -102q43 -61 43 -154v-539q0 -96 100 -96v-92q-139 -10 -184 82 q-109 -107 -299 -107q-64 0 -150 21q-68 18 -119 57.5t-78.5 88.5t-36 106zM142.5 263.5q6.5 -55.5 48 -103.5t112.5 -68q52 -14 121 -14q44 0 89.5 9t90 27.5t73 54t28.5 81.5v258q-80 21 -162.5 26t-165.5 -10.5t-139 -54.5q-53 -37 -77.5 -93.5t-18 -112zM252 1200v109 h117v-109h-117zM543 1200v109h114v-109h-114z" />
<glyph unicode="&#xe5;" horiz-adv-x="952" d="M40.5 246q8.5 -57 36 -106t78.5 -88.5t119 -57.5q86 -21 150 -21q190 0 299 107q45 -92 184 -82v92q-100 0 -100 96v539q0 93 -43 154q-49 67 -148.5 102t-204 32.5t-201 -43t-140.5 -110.5l88 -55q58 85 188 106q91 13 162 0q121 -23 172 -94q25 -35 25 -84v-131 q-149 31 -295 17t-238 -76q-51 -33 -84 -82.5t-44.5 -103.5t-3 -111zM142.5 263.5q-6.5 55.5 18 112t77.5 93.5q56 39 139 54.5t165.5 10.5t162.5 -26v-258q0 -46 -28.5 -81.5t-73 -54t-90 -27.5t-89.5 -9q-69 0 -121 14q-71 20 -112.5 68t-48 103.5zM326 1286 q0 46 31.5 78.5t76.5 32.5q46 0 78.5 -32.5t32.5 -78.5q0 -45 -32.5 -76.5t-78.5 -31.5t-77 31t-31 77zM391 1284q0 -19 12.5 -31t32.5 -12q19 0 32 12t13 31q0 20 -13 33.5t-32 13.5q-20 0 -32.5 -13.5t-12.5 -33.5z" />
<glyph unicode="&#xe6;" horiz-adv-x="1538" d="M40.5 246q-8.5 57 3 111t44.5 103.5t84 82.5q92 62 238 76t295 -17v139q-3 45 -25 76q-51 71 -172 94q-71 13 -162 0q-130 -21 -188 -106l-88 55q43 69 139 110.5t200 46t202.5 -34.5t144.5 -118q64 101 184 133q148 42 297 0q65 -19 114 -60.5t76 -92.5t34 -110.5 t-7.5 -114.5t-54 -105t-99.5 -82q-50 -27 -122 -40t-122.5 -14t-138 2t-110.5 3v-104q0 -45 27 -86q55 -74 170 -93q80 -15 161 0q128 17 191 105l88 -53q-77 -125 -264 -154q-96 -16 -179 -2q-71 11 -133.5 41t-103.5 74q-61 -68 -158.5 -103t-181.5 -35q-64 0 -150 21 q-68 18 -119 57.5t-78.5 88.5t-36 106zM142.5 263.5q6.5 -55.5 48 -103.5t112.5 -68q52 -14 121 -14q68 0 158 32t135 87q-12 37 -12 82v229q-80 21 -162.5 26t-165.5 -10.5t-139 -54.5q-53 -37 -77.5 -93.5t-18 -112zM807 473q4 0 111 -1.5t189.5 8.5t143.5 40q50 24 80 66 t33.5 88.5t-11 92t-52.5 81.5t-91 51q-122 31 -243 0q-71 -20 -115 -59t-45 -95v-4v-268z" />
<glyph unicode="&#xe7;" horiz-adv-x="954" d="M98 268v469q0 98 66 163.5t168 94.5q82 21 149 21q64 0 150 -21q105 -30 169 -95t64 -163h-102q0 59 -44 99.5t-116 60.5q-59 16 -121 16q-61 0 -123 -16q-66 -17 -111.5 -58t-45.5 -104v-467q0 -63 44.5 -103.5t112.5 -60.5q122 -32 244 0h2q71 20 114.5 61t43.5 99h102 q0 -97 -64.5 -162.5t-168.5 -93.5v-2q-68 -15 -137 -18l-25 -56q90 3 137 -32.5t45 -81.5q-3 -63 -71 -98t-149.5 -26t-119.5 58l56 43q23 -23 68 -29.5t81.5 8.5t36.5 46q0 14 -7 24t-20.5 16t-27.5 10t-33.5 5.5t-33.5 2t-33.5 1t-26.5 0.5v10l49 103q-30 2 -88 14 q-103 28 -168.5 95t-65.5 167z" />
<glyph unicode="&#xe8;" horiz-adv-x="935" d="M102 287v454q0 96 65 161t171 95q148 42 297 0q65 -19 114 -60.5t76 -92.5t34 -110.5t-7.5 -114.5t-54 -105t-99.5 -82q-50 -27 -122 -40t-122 -14t-137 2t-110 3v-104q0 -50 24 -86q55 -74 170 -93q81 -15 162 0q128 17 191 105l88 -53q-77 -125 -264 -154 q-96 -16 -179 -2q-80 12 -146.5 47t-105.5 88q-45 64 -45 156zM207 473q4 0 110.5 -1.5t188.5 8.5t143 40q50 24 80 66t33.5 88.5t-11 92t-52.5 81.5t-91 51q-122 31 -243 0q-71 -20 -114.5 -60.5t-43.5 -97.5v-268zM346 1358v14h133l60 -178h-90z" />
<glyph unicode="&#xe9;" horiz-adv-x="935" d="M102 287q0 -92 45 -156q39 -53 105.5 -88t146.5 -47q83 -14 179 2q187 29 264 154l-88 53q-63 -88 -191 -105q-81 -15 -162 0q-115 19 -170 93q-24 36 -24 86v104q23 0 110 -3t137 -2t122 14t122 40q60 32 99.5 82t54 105t7.5 114.5t-34 110.5t-76 92.5t-114 60.5 q-149 42 -297 0q-106 -30 -171 -95t-65 -161v-454zM207 473v268q0 57 43.5 97.5t114.5 60.5q121 31 243 0q53 -15 91 -51t52.5 -81.5t11 -92t-33.5 -88.5t-80 -66q-61 -30 -143 -40t-188.5 -8.5t-110.5 1.5zM412 1186l59 178h133v-14l-102 -164h-90z" />
<glyph unicode="&#xea;" horiz-adv-x="935" d="M102 287q0 -92 45 -156q39 -53 105.5 -88t146.5 -47q83 -14 179 2q187 29 264 154l-88 53q-63 -88 -191 -105q-81 -15 -162 0q-115 19 -170 93q-24 36 -24 86v104q23 0 110 -3t137 -2t122 14t122 40q60 32 99.5 82t54 105t7.5 114.5t-34 110.5t-76 92.5t-114 60.5 q-149 42 -297 0q-106 -30 -171 -95t-65 -161v-454zM207 473v268q0 57 43.5 97.5t114.5 60.5q121 31 243 0q53 -15 91 -51t52.5 -81.5t11 -92t-33.5 -88.5t-80 -66q-61 -30 -143 -40t-188.5 -8.5t-110.5 1.5zM283 1192l123 170h131l120 -170h-100l-86 96l-86 -96h-102z" />
<glyph unicode="&#xeb;" horiz-adv-x="935" d="M102 287v454q0 96 65 161t171 95q148 42 297 0q65 -19 114 -60.5t76 -92.5t34 -110.5t-7.5 -114.5t-54 -105t-99.5 -82q-50 -27 -122 -40t-122 -14t-137 2t-110 3v-104q0 -50 24 -86q55 -74 170 -93q81 -15 162 0q128 17 191 105l88 -53q-77 -125 -264 -154 q-96 -16 -179 -2q-80 12 -146.5 47t-105.5 88q-45 64 -45 156zM207 473q4 0 110.5 -1.5t188.5 8.5t143 40q50 24 80 66t33.5 88.5t-11 92t-52.5 81.5t-91 51q-122 31 -243 0q-71 -20 -114.5 -60.5t-43.5 -97.5v-268zM270 1184v129h121v-129h-121zM573 1184v129h121v-129 h-121z" />
<glyph unicode="&#xec;" horiz-adv-x="360" d="M43 1364v14h133l60 -178h-91zM129 0v1006h104v-1006h-104z" />
<glyph unicode="&#xed;" horiz-adv-x="360" d="M121 1200l59 178h133v-14l-102 -164h-90zM129 0h104v1006h-104v-1006z" />
<glyph unicode="&#xee;" horiz-adv-x="360" d="M-8 1200l123 170h131l121 -170h-101l-86 96l-86 -96h-102zM129 0h104v1006h-104v-1006z" />
<glyph unicode="&#xef;" horiz-adv-x="360" d="M-27 1284v129h121v-129h-121zM129 0v1006h104v-1006h-104zM276 1284v129h121v-129h-121z" />
<glyph unicode="&#xf1;" horiz-adv-x="970" d="M100 0v1008h105v-95q99 107 278 107q73 1 140.5 -16.5t123 -51.5t88.5 -91t33 -130v-731h-104v733q0 86 -83.5 136.5t-195.5 50.5q-114 0 -197 -52.5t-83 -150.5v-717h-105zM299 1217q8 41 44 75t77 37q43 4 94 -29.5t66 -31.5q38 3 47 45l63 -27q-8 -41 -36.5 -67 t-71.5 -29q-39 -2 -86.5 31t-67.5 32q-23 -2 -42.5 -18t-23.5 -39z" />
<glyph unicode="&#xf2;" horiz-adv-x="960" d="M96 266v475q0 97 65 162.5t169 93.5q73 21 149 21q79 0 150 -21q104 -28 168.5 -93.5t64.5 -162.5v-475q0 -91 -56 -154t-151 -96q-124 -41 -274 -18q-125 22 -205 90.5t-80 177.5zM199 266q0 -66 56.5 -111t141.5 -59q122 -19 226 17q62 21 99.5 60.5t37.5 92.5v475 q0 57 -43.5 97.5t-114.5 60.5q-62 16 -123 16t-123 -16q-71 -20 -114 -60t-43 -98v-475zM356 1350v14h133l60 -178h-90z" />
<glyph unicode="&#xf3;" horiz-adv-x="960" d="M96 266q0 -109 80 -177.5t205 -90.5q150 -23 274 18q95 33 151 96t56 154v475q0 97 -64.5 162.5t-168.5 93.5q-71 21 -150 21q-75 0 -149 -21q-104 -28 -169 -93.5t-65 -162.5v-475zM199 266v475q0 58 43 98t114 60q62 16 123 16t123 -16q71 -20 114.5 -60.5t43.5 -97.5 v-475q0 -53 -37.5 -92.5t-99.5 -60.5q-104 -36 -226 -17q-85 14 -141.5 59t-56.5 111zM436 1184l60 178h133v-14l-103 -164h-90z" />
<glyph unicode="&#xf4;" horiz-adv-x="960" d="M96 266q0 -109 80 -177.5t205 -90.5q150 -23 274 18q95 33 151 96t56 154v475q0 97 -64.5 162.5t-168.5 93.5q-71 21 -150 21q-75 0 -149 -21q-104 -28 -169 -93.5t-65 -162.5v-475zM199 266v475q0 58 43 98t114 60q62 16 123 16t123 -16q71 -20 114.5 -60.5t43.5 -97.5 v-475q0 -53 -37.5 -92.5t-99.5 -60.5q-104 -36 -226 -17q-85 14 -141.5 59t-56.5 111zM297 1194l123 170h131l121 -170h-101l-86 96l-86 -96h-102z" />
<glyph unicode="&#xf5;" horiz-adv-x="960" d="M96 266v475q0 97 65 162.5t169 93.5q73 21 149 21q79 0 150 -21q104 -28 168.5 -93.5t64.5 -162.5v-475q0 -91 -56 -154t-151 -96q-124 -41 -274 -18q-125 22 -205 90.5t-80 177.5zM199 266q0 -66 56.5 -111t141.5 -59q122 -19 226 17q62 21 99.5 60.5t37.5 92.5v475 q0 57 -43.5 97.5t-114.5 60.5q-62 16 -123 16t-123 -16q-71 -20 -114 -60t-43 -98v-475zM295 1217q8 41 44 75t77 37q43 4 93.5 -29.5t65.5 -31.5q39 3 48 45l63 -27q-8 -41 -36.5 -67t-71.5 -29q-39 -2 -86.5 31t-67.5 32q-23 -2 -42.5 -18t-23.5 -39z" />
<glyph unicode="&#xf6;" horiz-adv-x="960" d="M96 266v475q0 97 65 162.5t169 93.5q73 21 149 21q79 0 150 -21q104 -28 168.5 -93.5t64.5 -162.5v-475q0 -91 -56 -154t-151 -96q-124 -41 -274 -18q-125 22 -205 90.5t-80 177.5zM199 266q0 -66 56.5 -111t141.5 -59q122 -19 226 17q62 21 99.5 60.5t37.5 92.5v475 q0 57 -43.5 97.5t-114.5 60.5q-62 16 -123 16t-123 -16q-71 -20 -114 -60t-43 -98v-475zM272 1188v129h121v-129h-121zM575 1188v129h121v-129h-121z" />
<glyph unicode="&#xf8;" horiz-adv-x="960" d="M96 266v475q0 97 65 162.5t169 93.5q73 21 149 21q79 0 150 -21q37 -11 57 -20l45 82h109l-72 -129q94 -74 94 -189v-475q0 -91 -56 -154t-151 -96q-124 -41 -274 -18q-62 9 -113 33l-51 -94h-104l77 139q-94 74 -94 190zM199 266q0 -57 41 -98l397 719l-35 12 q-62 16 -123 16t-123 -16q-71 -20 -114 -60t-43 -98v-475zM317 119q46 -18 80 -23q122 -19 226 17q62 21 99.5 60.5t37.5 92.5v475q0 54 -43 97z" />
<glyph unicode="&#xf9;" d="M100 276v728h103v-728q0 -87 84 -137.5t196 -50.5q72 0 134.5 21.5t104.5 69t42 112.5v713h102v-1004h-102v96q-94 -104 -279 -108q-74 0 -141 17t-122.5 51t-88.5 91t-33 129zM358 1360v14h134l59 -178h-90z" />
<glyph unicode="&#xfa;" d="M100 276v728h103v-728q0 -87 84 -137.5t196 -50.5q72 0 134.5 21.5t104.5 69t42 112.5v713h102v-1004h-102v96q-94 -104 -279 -108q-74 0 -141 17t-122.5 51t-88.5 91t-33 129zM416 1192l59 178h133v-14l-102 -164h-90z" />
<glyph unicode="&#xfb;" d="M100 276v728h103v-728q0 -87 84 -137.5t196 -50.5q72 0 134.5 21.5t104.5 69t42 112.5v713h102v-1004h-102v96q-94 -104 -279 -108q-74 0 -141 17t-122.5 51t-88.5 91t-33 129zM303 1192l123 170h131l121 -170h-100l-86 96l-86 -96h-103z" />
<glyph unicode="&#xfc;" d="M100 276v728h103v-728q0 -87 84 -137.5t196 -50.5q72 0 134.5 21.5t104.5 69t42 112.5v713h102v-1004h-102v96q-94 -104 -279 -108q-74 0 -141 17t-122.5 51t-88.5 91t-33 129zM268 1192v129h121v-129h-121zM571 1192v129h121v-129h-121z" />
<glyph unicode="&#xfd;" horiz-adv-x="964" d="M98 264v740h105v-738q0 -84 80 -133q76 -46 198 -49l6 2q80 0 147 24t101 70q27 36 27 92v732h102v-1143v-19q0 -100 -65 -166.5t-166 -93.5q-70 -20 -150 -20q-110 0 -210 40.5t-146 125.5l88 47q40 -58 113 -84.5t155 -26.5q69 0 121 14q67 19 112 60.5t46 103.5v19v16 v201q-67 -62 -166 -85t-195.5 -8t-171.5 60q-131 77 -131 219zM430 1192l59 178h134v-14l-103 -164h-90z" />
<glyph unicode="&#xff;" horiz-adv-x="964" d="M98 264v740h105v-738q0 -84 80 -133q76 -46 198 -49l6 2q80 0 147 24t101 70q27 36 27 92v732h102v-1143v-19q0 -100 -65 -166.5t-166 -93.5q-70 -20 -150 -20q-110 0 -210 40.5t-146 125.5l88 47q40 -58 113 -84.5t155 -26.5q69 0 121 14q67 19 112 60.5t46 103.5v19v16 v201q-67 -62 -166 -85t-195.5 -8t-171.5 60q-131 77 -131 219zM287 1202v129h121v-129h-121zM590 1202v129h121v-129h-121z" />
<glyph unicode="&#x152;" horiz-adv-x="1718" d="M104 262v914q0 79 55 140t142.5 92.5t188.5 42.5t201.5 -5.5t172.5 -56.5v47h762v-103h-659v-563h659v-104h-659q0 -11 -0.5 -65t-0.5 -105.5t0.5 -110t2.5 -99.5t6 -53q22 -65 103.5 -97t168.5 -32h379v-104h-379q-99 0 -188 34t-139 105q-40 -58 -117.5 -95.5t-167 -50 t-184.5 -1.5t-172 43t-126 91.5t-49 135.5zM207 1176l2 -904q0 -41 6 -53q18 -51 84 -85.5t151.5 -43t171.5 0t152 43t84 85.5q6 12 6 53v1006q-41 40 -122 62.5t-171 21t-173 -20t-137 -62.5t-54 -103z" />
<glyph unicode="&#x153;" horiz-adv-x="1593" d="M96 266v475q0 97 65 162.5t169 93.5q73 21 149 21q79 0 150 -21q124 -33 182 -133q59 100 184 133q149 42 297 0q77 -23 132.5 -76.5t76.5 -120t16 -135.5t-47 -132t-114 -101q-50 -27 -122.5 -40t-123 -14t-138 2t-110.5 3v-117q3 -38 27 -73q55 -74 170 -93 q81 -15 162 0q127 17 190 105l88 -53q-77 -125 -264 -154q-95 -16 -178 -2q-79 11 -144 49.5t-100 101.5q-16 -39 -44 -66t-51.5 -39t-62.5 -26q-124 -41 -274 -18q-125 22 -205 90.5t-80 177.5zM199 266q0 -66 56.5 -111t141.5 -59q122 -19 226 17q62 21 99.5 60.5 t37.5 92.5v475q0 57 -43.5 97.5t-114.5 60.5q-62 16 -123 16t-123 -16q-71 -20 -114 -60t-43 -98v-475zM862 473q4 0 111.5 -1.5t190 8.5t143.5 40q50 24 80 66t33.5 88.5t-11 92t-52.5 81.5t-91 51q-122 31 -244 0q-70 -20 -114.5 -58.5t-45.5 -92.5v-7v-268z" />
<glyph unicode="&#x178;" horiz-adv-x="993" d="M80 1051v383h104v-385q0 -39 12 -64t42 -55l262 -275l262 275q29 29 41 54t12 65v385h105v-383q0 -59 -17.5 -101.5t-60.5 -85.5l-291 -303v-559h-102v559l-291 303q-43 43 -60.5 85.5t-17.5 101.5zM297 1528v112h117v-112h-117zM588 1528v112h114v-112h-114z" />
<glyph unicode="&#x2c6;" horiz-adv-x="649" d="M147 1421l123 170h131l121 -170h-100l-86 97l-86 -97h-103z" />
<glyph unicode="&#x2dc;" horiz-adv-x="598" d="M92 1325q8 42 44 76t77 37q43 4 94 -30t66 -32q38 3 47 45l63 -26q-8 -42 -37 -68t-71 -29q-39 -2 -86.5 31.5t-67.5 32.5q-23 -2 -42 -18t-23 -39z" />
<glyph unicode="&#x2000;" horiz-adv-x="860" />
<glyph unicode="&#x2001;" horiz-adv-x="1720" />
<glyph unicode="&#x2002;" horiz-adv-x="860" />
<glyph unicode="&#x2003;" horiz-adv-x="1720" />
<glyph unicode="&#x2004;" horiz-adv-x="573" />
<glyph unicode="&#x2005;" horiz-adv-x="430" />
<glyph unicode="&#x2006;" horiz-adv-x="286" />
<glyph unicode="&#x2007;" horiz-adv-x="286" />
<glyph unicode="&#x2008;" horiz-adv-x="215" />
<glyph unicode="&#x2009;" horiz-adv-x="344" />
<glyph unicode="&#x200a;" horiz-adv-x="95" />
<glyph unicode="&#x2010;" horiz-adv-x="649" d="M88 510v102h440v-102h-440z" />
<glyph unicode="&#x2011;" horiz-adv-x="649" d="M88 510v102h440v-102h-440z" />
<glyph unicode="&#x2012;" horiz-adv-x="649" d="M88 510v102h440v-102h-440z" />
<glyph unicode="&#x2013;" horiz-adv-x="1233" d="M88 510v102h1024v-102h-1024z" />
<glyph unicode="&#x2014;" horiz-adv-x="2257" d="M88 510v102h2048v-102h-2048z" />
<glyph unicode="&#x2018;" horiz-adv-x="415" d="M164 1188v137q0 121 110 109v-45q-17 1 -27.5 -20t-4.5 -44h45v-137h-123z" />
<glyph unicode="&#x2019;" horiz-adv-x="403" d="M164 1298v138h123v-138q0 -120 -111 -108v45q17 -2 28 19t5 44h-45z" />
<glyph unicode="&#x201a;" horiz-adv-x="475" d="M164 4v137h123v-137q0 -120 -111 -108v45q17 -2 28 19t5 44h-45z" />
<glyph unicode="&#x201c;" horiz-adv-x="641" d="M164 1188v137q0 121 110 109v-45q-17 1 -27.5 -20t-4.5 -44h45v-137h-123zM381 1188v137q0 65 31 89.5t80 19.5v-45q-17 1 -28 -20t-5 -44h45v-137h-123z" />
<glyph unicode="&#x201d;" horiz-adv-x="645" d="M164 1298v138h123v-138q0 -120 -111 -108v45q17 -2 28 19t5 44h-45zM381 1298v138h123v-138q0 -120 -111 -108v45q17 -2 28 19t5 44h-45z" />
<glyph unicode="&#x201e;" horiz-adv-x="657" d="M164 4v137h123v-137q0 -120 -111 -108v45q17 -2 28 19t5 44h-45zM393 4v137h123v-137q0 -120 -110 -108v45q17 -1 27.5 19.5t4.5 43.5h-45z" />
<glyph unicode="&#x2026;" horiz-adv-x="1056" d="M137 -2v139h123v-139h-123zM471 -2v139h123v-139h-123zM809 -2v139h123v-139h-123z" />
<glyph unicode="&#x202f;" horiz-adv-x="344" />
<glyph unicode="&#x205f;" horiz-adv-x="430" />
<glyph unicode="&#x20ac;" horiz-adv-x="1069" d="M4 551v92h98v107h-98v92h98v325q1 107 78.5 175.5t198.5 91.5q82 16 194.5 12t188.5 -29q96 -33 152.5 -96t56.5 -154h-103q0 54 -37.5 93t-99.5 61q-67 22 -165.5 24.5t-168.5 -12.5q-84 -16 -138 -59t-54 -107v-325h303v-92h-303v-107h303v-92h-303v-283q0 -57 45 -97 t119 -60q71 -19 173 -18.5t173 20.5q70 20 111.5 59.5t41.5 95.5l103 2q0 -97 -62.5 -161.5t-165.5 -94.5q-83 -23 -201.5 -23.5t-199.5 21.5q-106 28 -172.5 93.5t-67.5 162.5v283h-98z" />
<glyph unicode="&#xe000;" horiz-adv-x="1003" d="M0 0v1004h1004v-1004h-1004z" />
</font>
</defs>
</svg>
